<?xml version="1.0" standalone="no"?>
<!DOCTYPE svg PUBLIC "-//W3C//DTD SVG 20010904//EN"
 "http://www.w3.org/TR/2001/REC-SVG-20010904/DTD/svg10.dtd">
<svg version="1.0" xmlns="http://www.w3.org/2000/svg"
 width="539.000000pt" height="525.000000pt" viewBox="0 0 539.000000 525.000000"
 preserveAspectRatio="xMidYMid meet">

<g transform="translate(0.000000,525.000000) scale(0.100000,-0.100000)"
fill="#000000" stroke="none">
<path d="M1644 3316 c-57 -14 -122 -45 -171 -82 -18 -14 -155 -168 -305 -344
l-273 -320 -185 0 c-257 0 -336 -23 -423 -119 -85 -94 -97 -152 -97 -469 0
-270 9 -336 57 -424 31 -58 123 -147 181 -177 56 -29 154 -51 227 -51 l61 0
-4 96 c-16 364 272 664 638 664 274 0 506 -165 605 -430 26 -67 29 -88 29
-202 l1 -128 805 0 806 0 -4 96 c-16 364 272 664 638 664 274 0 506 -165 605
-430 26 -67 29 -88 29 -203 l1 -128 45 6 c133 20 245 105 290 220 22 56 24 77
28 287 4 259 -4 314 -63 403 -36 53 -114 116 -170 135 -16 5 -249 50 -517 99
l-487 89 -73 60 c-40 33 -226 187 -413 342 -353 294 -405 329 -514 350 -82 15
-1281 12 -1347 -4z m246 -211 c54 -28 60 -55 60 -260 0 -147 -3 -192 -15 -215
-30 -57 -45 -60 -365 -60 -277 0 -291 1 -310 20 -31 31 -24 55 37 127 239 283
326 381 345 391 36 17 213 15 248 -3z m1362 -207 c155 -123 289 -235 297 -249
13 -24 13 -29 -2 -53 l-17 -26 -606 0 c-664 0 -647 -1 -679 60 -22 42 -22 388
0 430 30 58 39 59 397 60 l327 0 283 -222z m-642 -543 c16 -9 36 -29 45 -45
31 -60 10 -137 -45 -165 -21 -11 -60 -15 -140 -15 -125 0 -160 11 -185 60 -30
59 -10 136 43 164 39 21 242 22 282 1z"/>
<path d="M1260 1960 c-281 -49 -473 -329 -417 -605 45 -217 195 -367 412 -412
189 -38 390 39 507 196 55 73 86 148 100 251 22 149 -35 312 -148 424 -119
120 -290 174 -454 146z m197 -295 c90 -45 138 -130 131 -231 -15 -243 -344
-309 -453 -91 -102 205 117 424 322 322z"/>
<path d="M4140 1960 c-281 -49 -473 -329 -417 -605 45 -217 195 -367 412 -412
189 -38 390 39 507 196 55 73 86 148 100 251 22 149 -35 312 -148 424 -119
120 -290 174 -454 146z m197 -295 c90 -45 138 -130 131 -231 -15 -243 -344
-309 -453 -91 -102 205 117 424 322 322z"/>
</g>
</svg>
