<?xml version="1.0" standalone="no"?>
<!DOCTYPE svg PUBLIC "-//W3C//DTD SVG 20010904//EN"
 "http://www.w3.org/TR/2001/REC-SVG-20010904/DTD/svg10.dtd">
<svg version="1.0" xmlns="http://www.w3.org/2000/svg"
 width="512.000000pt" height="512.000000pt" viewBox="0 0 512.000000 512.000000"
 preserveAspectRatio="xMidYMid meet">

<g transform="translate(0.000000,512.000000) scale(0.100000,-0.100000)"
fill="#000000" stroke="none">
<path d="M3032 4760 c-95 -25 -162 -62 -234 -129 -64 -59 -72 -87 -37 -122 15
-15 28 -19 47 -15 167 38 264 24 377 -54 84 -58 151 -165 169 -271 5 -24 1
-40 -12 -57 l-18 -23 -70 35 c-93 46 -149 56 -324 56 -137 0 -152 -2 -170 -20
-12 -12 -20 -33 -20 -52 0 -54 29 -160 57 -208 35 -62 118 -145 179 -180 52
-31 156 -60 211 -60 27 0 34 -4 38 -27 3 -16 13 -55 21 -88 15 -58 15 -59 -8
-77 -45 -35 -224 -118 -313 -145 -84 -25 -103 -27 -275 -27 l-185 -1 -325 78
c-418 101 -498 116 -644 124 -261 13 -502 -52 -712 -193 -86 -57 -225 -184
-277 -253 l-26 -35 -20 25 c-36 41 -81 141 -92 204 -23 125 8 248 92 361 36
49 48 73 43 88 -16 54 -63 57 -158 10 -134 -65 -249 -199 -296 -344 -21 -62
-25 -94 -24 -185 0 -125 20 -198 81 -299 40 -64 130 -159 176 -182 23 -12 28
-20 23 -37 -30 -106 -40 -184 -41 -317 0 -158 11 -235 56 -372 37 -114 74
-186 177 -343 l84 -130 39 -420 c22 -241 39 -479 39 -558 0 -124 2 -139 20
-157 19 -19 33 -20 400 -20 367 0 381 1 400 20 11 11 20 26 20 32 0 7 -18 67
-40 133 -37 113 -41 136 -64 385 l-24 264 67 71 c37 40 82 93 100 119 45 65
105 188 132 269 l22 67 440 0 439 0 -5 -32 c-4 -18 -20 -131 -37 -251 l-31
-218 80 -282 81 -282 0 -128 c0 -114 2 -129 20 -147 19 -19 33 -20 400 -20
476 0 450 -12 384 181 -19 57 -72 233 -118 390 l-83 286 128 324 c113 286 132
327 161 348 117 87 243 254 291 389 11 31 21 58 22 60 2 1 14 -3 29 -9 38 -18
68 0 120 71 60 82 91 150 111 245 9 44 17 80 18 80 1 1 23 9 48 18 65 25 123
78 156 145 26 53 28 67 31 202 l4 144 63 68 c76 83 140 206 158 304 13 69 13
69 48 72 68 6 164 33 209 59 62 35 145 118 180 179 31 52 60 156 60 212 0 19
-8 40 -21 53 -20 20 -28 21 -203 17 -158 -4 -188 -7 -235 -27 -30 -12 -67 -31
-82 -42 -35 -25 -43 -24 -64 7 -14 22 -15 33 -5 73 41 167 158 283 320 317 72
15 115 12 222 -12 32 -7 68 24 68 60 0 30 -94 119 -167 159 -64 34 -190 67
-258 67 -213 0 -415 -125 -503 -311 -34 -73 -39 -79 -62 -74 -141 29 -247 29
-381 -1 -24 -5 -28 -2 -38 29 -18 52 -85 152 -137 203 -133 128 -344 183 -522
134z m1011 -475 c111 -23 192 -69 282 -160 91 -90 137 -171 160 -282 41 -191
-7 -349 -152 -505 l-73 -78 0 -147 c0 -122 -4 -155 -19 -188 -33 -73 -93 -105
-196 -105 l-65 0 0 120 0 120 60 81 c33 44 60 89 60 100 0 25 -35 59 -60 59
-22 0 -46 -21 -92 -80 l-28 -35 -27 35 c-47 59 -71 80 -93 80 -25 0 -60 -34
-60 -59 0 -11 27 -56 60 -100 l60 -81 0 -120 0 -120 -65 0 c-103 0 -163 32
-196 105 -15 33 -19 66 -19 188 l0 147 -72 78 c-146 156 -194 314 -153 505 24
112 69 192 160 282 149 149 327 203 528 160z m-913 -241 c58 -17 130 -58 130
-75 0 -5 -6 -38 -14 -72 -8 -34 -18 -75 -21 -91 -6 -28 -7 -29 -62 -23 -110
11 -216 87 -267 190 -43 86 -42 87 77 87 65 0 123 -6 157 -16z m1840 -2 c0
-35 -52 -121 -101 -167 -59 -55 -115 -82 -192 -91 -53 -6 -56 -5 -61 17 -3 13
-12 57 -21 97 -20 83 -18 87 51 122 67 33 94 38 217 39 97 1 107 -1 107 -17z
m-4716 -604 c-34 -162 4 -323 110 -466 l47 -64 -28 -54 c-15 -30 -34 -54 -40
-54 -21 0 -116 103 -145 156 -84 155 -74 339 27 491 19 29 37 53 38 53 2 0 -2
-28 -9 -62z m1411 -78 c33 -6 211 -47 395 -90 439 -103 443 -104 629 -97 126
4 174 10 250 31 113 32 223 78 313 133 l67 41 25 -37 c14 -20 46 -56 71 -81
l45 -44 0 -133 c0 -111 3 -142 21 -190 28 -74 98 -145 167 -169 l51 -18 11
-64 c6 -35 22 -93 37 -128 l25 -64 -17 -69 c-45 -183 -169 -353 -329 -450 -57
-34 -149 -73 -200 -85 -25 -6 -28 -5 -21 11 18 40 17 84 0 103 -21 24 -58 26
-78 5 -16 -15 -307 -741 -307 -763 0 -11 126 -458 137 -489 4 -10 -19 -13 -96
-13 -56 0 -101 3 -101 8 0 4 -32 117 -70 252 l-69 244 50 345 c27 189 49 356
49 369 0 33 -27 62 -57 62 -38 0 -59 -31 -67 -99 l-7 -61 -594 0 -595 0 0 23
c0 12 5 51 11 87 5 35 8 74 4 87 -11 45 -82 55 -104 15 -5 -9 -17 -69 -26
-132 -39 -276 -115 -439 -282 -604 l-76 -76 21 -237 c12 -131 22 -248 22 -260
0 -22 -3 -23 -98 -23 l-98 0 -33 373 c-18 204 -36 394 -39 421 -4 41 -21 73
-95 185 -108 163 -159 268 -194 399 -23 85 -26 117 -26 257 0 140 3 172 26
256 109 412 442 712 863 779 73 11 308 5 389 -10z m2345 -690 c0 -51 -68 -210
-90 -210 -24 0 -90 156 -90 212 l0 28 90 0 90 0 0 -30z m-764 -1188 c-58 -148
-106 -274 -106 -280 0 -11 126 -458 137 -489 4 -10 -19 -13 -93 -13 l-99 0
-71 249 -70 249 100 252 101 253 94 23 c52 13 96 26 99 29 21 21 1 -37 -92
-273z m-1701 151 c-45 -119 -105 -211 -204 -315 l-94 -99 22 -237 c11 -130 21
-247 21 -259 0 -22 -3 -23 -98 -23 l-98 0 -21 238 -21 237 60 60 c105 105 203
269 243 408 l16 57 100 0 99 0 -25 -67z m-538 -1095 c7 -24 15 -51 18 -60 7
-17 -3 -18 -119 -18 l-126 0 0 60 0 60 108 0 108 0 11 -42z m1998 2 c7 -19 15
-45 19 -57 l7 -23 -125 0 -126 0 0 60 0 61 107 -3 106 -3 12 -35z"/>
<path d="M3600 3840 c-17 -17 -20 -33 -20 -100 0 -67 3 -83 20 -100 11 -11 29
-20 40 -20 11 0 29 9 40 20 17 17 20 33 20 100 0 67 -3 83 -20 100 -11 11 -29
20 -40 20 -11 0 -29 -9 -40 -20z"/>
<path d="M4160 3840 c-17 -17 -20 -33 -20 -100 0 -67 3 -83 20 -100 11 -11 29
-20 40 -20 11 0 29 9 40 20 17 17 20 33 20 100 0 67 -3 83 -20 100 -11 11 -29
20 -40 20 -11 0 -29 -9 -40 -20z"/>
</g>
</svg>
